<svg xmlns="http://www.w3.org/2000/svg" viewBox="0 0 480 300" width="100%" height="100%">
  <defs>
    <pattern id="cadGrid" width="20" height="20" patternUnits="userSpaceOnUse">
      <path d="M 20 0 L 0 0 0 20" fill="none" stroke="#222832" stroke-width="0.8"/>
    </pattern>
    <linearGradient id="cmdBarGrad" x1="0" y1="0" x2="0" y2="1">
      <stop offset="0%" stop-color="#14181f"/>
      <stop offset="100%" stop-color="#0c0e12"/>
    </linearGradient>
    <filter id="glowCyan" x="-20%" y="-20%" width="140%" height="140%">
      <feGaussianBlur stdDeviation="2" result="blur"/>
      <feComposite in="SourceGraphic" in2="blur" operator="over"/>
    </filter>
  </defs>

  <!-- Background -->
  <rect width="480" height="300" rx="8" fill="#15191f" stroke="#2a3340" stroke-width="2"/>
  <rect width="480" height="255" fill="url(#cadGrid)"/>

  <!-- Viewport Controls (Lee Mac / AutoCAD style) -->
  <text x="14" y="22" font-family="'Consolas', 'Courier New', monospace" font-size="11" fill="#78889b">[-][Top][2D Wireframe]</text>

  <!-- Top Right Watermark Badge -->
  <rect x="348" y="10" width="120" height="20" rx="4" fill="#1f2632" stroke="#323e50" stroke-width="1"/>
  <text x="408" y="24" font-family="'Consolas', monospace" font-size="10" font-weight="bold" fill="#00e5ff" text-anchor="middle">AUTOLISP &bull; CAD</text>

  <!-- UCS Icon (Bottom Left) -->
  <g transform="translate(14, 212)">
    <line x1="12" y1="20" x2="12" y2="2" stroke="#4caf50" stroke-width="2"/>
    <polygon points="12,0 9,6 15,6" fill="#4caf50"/>
    <text x="10" y="-3" font-family="sans-serif" font-size="10" font-weight="bold" fill="#4caf50" text-anchor="middle">Y</text>

    <line x1="12" y1="20" x2="30" y2="20" stroke="#f44336" stroke-width="2"/>
    <polygon points="32,20 26,17 26,23" fill="#f44336"/>
    <text x="38" y="23" font-family="sans-serif" font-size="10" font-weight="bold" fill="#f44336">X</text>

    <rect x="9" y="17" width="6" height="6" fill="none" stroke="#cfd8dc" stroke-width="1"/>
    <text x="12" y="32" font-family="'Consolas', monospace" font-size="8" fill="#78909c" text-anchor="middle">WCS</text>
  </g>

  <!-- Command Line Bar (Bottom) -->
  <rect x="0" y="255" width="480" height="45" fill="url(#cmdBarGrad)" stroke="#232a35" stroke-width="1"/>
  <rect x="10" y="262" width="460" height="30" rx="4" fill="#181e26" stroke="#2d3747" stroke-width="1"/>
  <text x="20" y="281" font-family="'Consolas', 'Courier New', monospace" font-size="11" fill="#ffffff">
    <tspan fill="#00e5ff" font-weight="bold">Command:</tspan> AL3MERLG <tspan fill="#90a4ae">&lt;Select template &lt;A1 Metric&gt;: OK&gt;</tspan>
  </text>
  <!-- Drawing Layout & Title Block -->
  <rect x="80" y="45" width="320" height="190" fill="#1a202c" stroke="#e2e8f0" stroke-width="2"/>
  <rect x="90" y="55" width="300" height="170" fill="none" stroke="#cbd5e0" stroke-width="1" stroke-dasharray="4 2"/>
  <!-- Viewport Window -->
  <rect x="105" y="70" width="180" height="135" fill="#12161f" stroke="#00e5ff" stroke-width="1.5"/>
  <polyline points="120,170 150,110 180,140 210,95 240,150 260,130" fill="none" stroke="#4caf50" stroke-width="1.5"/>
  <text x="195" y="195" font-family="'Consolas', monospace" font-size="9" fill="#00e5ff" text-anchor="middle">VIEWPORT 1:100</text>
  <!-- Title Block (Right Column) -->
  <rect x="295" y="70" width="85" height="135" fill="#202736" stroke="#4a5568" stroke-width="1"/>
  <line x1="295" y1="100" x2="380" y2="100" stroke="#4a5568"/>
  <line x1="295" y1="130" x2="380" y2="130" stroke="#4a5568"/>
  <line x1="295" y1="160" x2="380" y2="160" stroke="#4a5568"/>
  <text x="337" y="88" font-family="'Consolas', monospace" font-size="9" font-weight="bold" fill="#ffd600" text-anchor="middle">AL3MER CAD</text>
  <text x="337" y="118" font-family="'Consolas', monospace" font-size="8" fill="#e2e8f0" text-anchor="middle">PROJECT SHEET</text>
  <text x="337" y="148" font-family="'Consolas', monospace" font-size="8" fill="#a0aec0" text-anchor="middle">SCALE 1:100</text>
  <text x="337" y="185" font-family="'Consolas', monospace" font-size="10" font-weight="bold" fill="#00e5ff" text-anchor="middle">A-101</text>
  <!-- AutoCAD Crosshair Cursor -->
  <g stroke="#ffffff" stroke-width="1" opacity="0.85">
    <line x1="165" y1="130" x2="235" y2="130"/>
    <line x1="200" y1="95" x2="200" y2="165"/>
    <rect x="195" y="125" width="10" height="10" fill="none" stroke="#ffffff" stroke-width="1"/>
  </g>
</svg>